# xmcd CD database file generated by Grip 2.94
# 
# Track frame offsets:
#       150
#       12395
#       30715
#       49682
#       61517
#       76502
#       87385
#       103897
#       121445
#       134850
#       150470
#       170082
#       188720
#       208485
#       222452
# 
# Disc length: 3328 seconds
# 
# Revision: 3
# Processed by: cddbd v1.4b41PL1 Copyright (c) Steve Scherf et al.
# Submitted via: Grip 2.94
# 
DISCID=d50cfe0f
DTITLE=Megawatt Blues Crushers - Megawatt Blues Crushers
DYEAR=1900
DGENRE=
TTITLE0=cc baby
TTITLE1=rolling stone
TTITLE2=driftin' blues
TTITLE3=hot little mama
TTITLE4=all mama's children
TTITLE5=further on up the road
TTITLE6=hop, skip and jump
TTITLE7=sting stang
TTITLE8=baby so long
TTITLE9=sent for you yesterday
TTITLE10=down home girl
TTITLE11=broke my baby's heart
TTITLE12=it's my own tears
TTITLE13=big mary's
TTITLE14=greyhound
EXTD=
EXTT0=
EXTT1=
EXTT2=
EXTT3=
EXTT4=
EXTT5=
EXTT6=
EXTT7=
EXTT8=
EXTT9=
EXTT10=
EXTT11=
EXTT12=
EXTT13=
EXTT14=
PLAYORDER=
